<svg width="100pt" height="100pt" viewBox="0 0 100 100" xmlns="http://www.w3.org/2000/svg">
 <g>
  <path d="m20.801 88.398c0 3.6992 3 6.6016 6.6992 6.6016h45.102c3.6992 0 6.6992-2.8984 6.6992-6.6016l2.5977-54.398h-63.598zm41.199-43.5c0-1.8984 1.1016-3.3984 3-3.3984s3 1.5 3 3.3984v37.602c0 1.8984-1.1016 3.3984-3 3.3984s-3-1.5-3-3.3984zm-15 0c0-1.8984 1.1016-3.3984 3-3.3984s3 1.5 3 3.3984v37.602c0 1.8984-1.1016 3.3984-3 3.3984s-3-1.5-3-3.3984zm-15 0c0-1.8984 1.1016-3.3984 3-3.3984s3 1.5 3 3.3984v37.602c0 1.8984-1.1016 3.3984-3 3.3984s-3-1.5-3-3.3984z"/>
  <path d="m83.102 17h-18.102v-8.8984c0-1.8008-0.89844-3.1016-2.8008-3.1016h-24.199c-1.8984 0-3 1.3008-3 3.1016v8.8984h-17.898c-1.8984 0-3.1016 1.3984-3.1016 3.3008v3.8008c0 1.8984 1.1992 3.8984 3.1016 3.8984h66.102c1.8984 0 2.8984-2.1016 2.8984-3.8984v-3.8008c-0.10156-1.9023-1.1016-3.3008-3-3.3008zm-24.102 0h-18v-6h18z"/>
 </g>
</svg>
